<svg id="Layer_1" data-name="Layer 1" xmlns="http://www.w3.org/2000/svg" viewBox="0 0 360.17 342.9">
  <defs>
    <style>
      .cls-1 {
        fill: #d8e2f2;
      }
    </style>
  </defs>
  <g>
    <g id="Layer_2" data-name="Layer 2">
      <g id="Layer_1-2" data-name="Layer 1-2">
        <path class="cls-1" d="M81.33,179.78a71.87,71.87,0,0,0-10.24,23.66h0a8.86,8.86,0,0,0-.84,4.21c-5.72,13.68,13,20.15,16.42,5.91,7.61-21.61,26.25-36.46,47.09-43.64,6.29-4.61,10-15.6,4.36-22.3,19.95-2.59,31.63,18,52.08,18.67a72.65,72.65,0,0,0,64.26-21.85C287.73,98.28,253.12,44.37,208,22.76,67-53.16-79.78,144.59,81.33,179.78Z" transform="translate(-10.91 -5.55)"/>
      </g>
    </g>
    <g id="Layer_2-2" data-name="Layer 2">
      <g id="Layer_1-2-2" data-name="Layer 1-2">
        <path class="cls-1" d="M300.67,174.22a71.87,71.87,0,0,0,10.24-23.66h0a8.86,8.86,0,0,0,.84-4.21c5.72-13.68-13-20.15-16.42-5.91-7.61,21.61-26.25,36.46-47.09,43.64-6.29,4.61-10,15.6-4.36,22.3-19.95,2.59-31.63-18-52.08-18.67a72.65,72.65,0,0,0-64.26,21.85C94.27,255.72,128.88,309.63,174,331.24,315,407.16,461.78,209.41,300.67,174.22Z" transform="translate(-10.91 -5.55)"/>
      </g>
    </g>
  </g>
</svg>
