<svg xmlns="http://www.w3.org/2000/svg" viewBox="0 0 66.12 21.63"><defs><style>.cls-1{fill:#cc594c;}.cls-2{fill:#3c3e41;}</style></defs><g id="Layer_2" data-name="Layer 2"><g id="Layer_1-2" data-name="Layer 1"><path class="cls-1" d="M19.17,3.69c-.07-.07-.12-.16-.2-.2-.48-.21-.92-.5-1.39-.74a4.62,4.62,0,0,1-.47-.19,10.74,10.74,0,0,0-1.38-.64c-.46-.18-.94-.34-1.39-.52-.73-.29-1.49-.45-2.2-.78-.66-.08-1.25-.4-1.91-.47a1.3,1.3,0,0,0-1-.08,2.58,2.58,0,0,1-.33.1A6.87,6.87,0,0,0,8,.38L6.09,1c-.93.3-1.83.69-2.74,1a5.53,5.53,0,0,1-1.1.45C1.52,2.86.75,3.2,0,3.67c0,.81,0,1.6,0,2.4A13.68,13.68,0,0,0,.09,8.46c.07.36,0,.73.08,1.11s.13.77.2,1.16.22,1,.35,1.5a12.25,12.25,0,0,0,.81,2.14,8.24,8.24,0,0,0,.64,1.21l.74,1.11c.15.23.35.43.51.66s.61.57.83.94c.27.09.4.34.61.52s.5.47.77.67.75.54,1.14.78,1,.58,1.49.84c.35.18.73.3,1.09.47a.5.5,0,0,0,.43,0,3.8,3.8,0,0,0,.47-.18c.43-.25.88-.47,1.32-.7a14.27,14.27,0,0,0,2.54-1.81,13.49,13.49,0,0,0,2-2.17,15.19,15.19,0,0,0,2.17-3.92c.18-.55.36-1.11.49-1.67A4.49,4.49,0,0,0,19,9.93s0-.08,0-.09c.17-.15.09-.34.08-.51s.11-.36.11-.56C19.17,7.07,19.17,5.38,19.17,3.69ZM6.7,8.55C5.85,9,5,9.38,4.17,9.88c.83.53,1.68.88,2.51,1.32v1.48L2.59,10.53V9.26c.05-.08.15-.1.24-.15.82-.45,1.66-.86,2.49-1.3l1.35-.72A14.46,14.46,0,0,1,6.7,8.55ZM12.15,6c-.31.66-.62,1.33-.91,2s-.66,1.53-1,2.29-.67,1.56-1,2.33c-.21.44-.37.91-.58,1.36l-.11.15H7.23c.1-.23.18-.44.27-.65.19-.44.4-.87.58-1.31s.51-1.17.76-1.75c.16-.36.31-.73.49-1.08a6.47,6.47,0,0,0,.4-.94c.11-.3.25-.6.38-.89s.3-.74.5-1.08.13-.5.33-.71h1.23C12.23,5.76,12.21,5.84,12.15,6Zm4.53,4.56c-.47.23-.93.53-1.43.78-.84.41-1.67.85-2.49,1.29-.09.06-.17,0-.27.07V11.26c.87-.44,1.69-.94,2.55-1.33,0-.14-.07-.12-.13-.15L12.49,8.52V7.16c.08-.06.16,0,.27,0,.82.44,1.65.87,2.48,1.3.48.25.94.55,1.44.75Z"/><path class="cls-2" d="M54.88,19.25a7.74,7.74,0,0,1-1.67-.11c-.1-.29-.15-.57-.22-.85-.11-.46-.18-.92-.32-1.37a8.41,8.41,0,0,1-.21-1,9.79,9.79,0,0,0-.21-1c-.09-.31-.13-.64-.23-1s-.11-.59-.22-.93a6.45,6.45,0,0,1,.76,0h.77a.7.7,0,0,1,.13.5c-.05.17.12.26.1.42s-.05.31.09.42a2.68,2.68,0,0,0,.08.7c0,.44.2.86.19,1.3.18.16,0,.41.11.55s0,.38.09.58c0,0,.07,0,.13,0,.1-.45.2-.91.31-1.37.15-.63.26-1.26.44-1.88a7.3,7.3,0,0,0,.19-.93c0-.11.18-.14.1-.27A2.16,2.16,0,0,1,56.35,13a.57.57,0,0,1,.22,0c.33.12.33.11.44.45a4.05,4.05,0,0,1,.12.5c0,.4.2.78.25,1.17s.26,1,.31,1.49a7.54,7.54,0,0,1,.18.9.1.1,0,0,0,.13,0l.79-4.46H60a1.7,1.7,0,0,1-.1,1c-.09.33-.14.67-.23,1a14.6,14.6,0,0,0-.36,1.59,10.06,10.06,0,0,0-.29,1.53c0,.13-.15.19-.1.33s-.06.23-.07.33-.13.26-.24.38H57.16l-.22-.31-.84-3.7H56c-.12.53-.25,1.06-.37,1.58-.08.35-.17.7-.22,1.06A8.84,8.84,0,0,1,55.11,19C55.08,19.07,55,19.14,54.88,19.25Z"/><path class="cls-2" d="M62.56,15.17l.19.19c.9.16,1.81.15,2.72.32a1.21,1.21,0,0,1,.65,1.17c0,.33,0,.67,0,1a3.06,3.06,0,0,1-.2.79c-.07.25-.33.31-.47.48a17,17,0,0,1-2.85.11,3.67,3.67,0,0,1-.74-.11.73.73,0,0,1-.51-.45,1.48,1.48,0,0,1-.19-.65c0-.26,0-.52,0-.79h1.25c.15.23.07.55.23.8h2c.2-.37,0-.77.1-1.14a1,1,0,0,0-.51-.14c-.41.05-.8-.16-1.2-.09a2.35,2.35,0,0,0-.79-.1,1.1,1.1,0,0,1-.7-.29,1.15,1.15,0,0,1-.29-.75c0-.43,0-.85,0-1.28a1.42,1.42,0,0,1,.33-.87.91.91,0,0,1,.7-.29h3A1.2,1.2,0,0,1,66,14.33V15H64.76a2.58,2.58,0,0,0-.21-.79h-1.8l-.19.2Z"/><path class="cls-2" d="M33.91,11.05a5.28,5.28,0,0,1-1.77.1,5.17,5.17,0,0,1-1.75-.1c-.05,0-.09-.1-.16-.15a1.33,1.33,0,0,1-.5-1c0-.16-.15-.29-.11-.47a2.78,2.78,0,0,0,0-.5c0-.69,0-1.38,0-2.06A3.09,3.09,0,0,1,30,5.62,1.05,1.05,0,0,1,30.91,5a23.62,23.62,0,0,1,2.38,0,1.15,1.15,0,0,1,1.19,1.08c.19.19,0,.45.15.67a1.51,1.51,0,0,1,0,.67c0,.41,0,.83,0,1.24a6.46,6.46,0,0,1-.19,1.52,1.09,1.09,0,0,1-.3.57C34.08,10.87,34,11,33.91,11.05Zm-2.27-1H33c0-.1.16-.07.2-.13a2.3,2.3,0,0,0,.12-1.1c0-.31,0-.61,0-.92V6.76a1.91,1.91,0,0,0-.13-.45c0-.17-.25,0-.34-.16s-.18,0-.26,0a4.23,4.23,0,0,0-1.48.14c.1.11-.1.12-.08.22a8.93,8.93,0,0,1-.1,1.15,5.06,5.06,0,0,1,0,.87,8.46,8.46,0,0,0,.1.88"/><path class="cls-2" d="M29,19.21V13.1h4.56v1.08H30.37v1.26h0l0,0h2.48v1.09H30.37V18h3.19v1.18Z"/><path class="cls-2" d="M42.83,11.15V5h4.56V6.11H44.26l-.15.14v1.1l0,0h2.52V8.58H44.12V9.94l.14.13H47.4v1.08Z"/><path class="cls-2" d="M28.33,7.22H27c-.08-.31.08-.69-.2-1-.56-.18-.52-.21-1.93,0a1.1,1.1,0,0,0-.19.6V9.36a.85.85,0,0,0,.34.71,8.27,8.27,0,0,0,1.8-.09A2.23,2.23,0,0,0,27,8.88h1.36c0,.25.09.51-.07.77-.05.07,0,.21,0,.31a1.24,1.24,0,0,1-.35.86,1.18,1.18,0,0,1-.87.34H24.74a1.2,1.2,0,0,1-1.27-1.06,6.59,6.59,0,0,1-.17-1.53c0-.34,0-.68,0-1a5.73,5.73,0,0,1,.12-1.24,1.87,1.87,0,0,1,.42-1,.59.59,0,0,1,.36-.22A4.57,4.57,0,0,1,24.93,5c.62,0,1.25,0,1.87,0a3.57,3.57,0,0,1,.74.11.9.9,0,0,1,.61.68A3.52,3.52,0,0,1,28.33,7.22Z"/><path class="cls-2" d="M27.13,16.76H24.87v2.32l-.15.15H23.53c-.07-.38-.1-4.77,0-6.13h4.36v1.08h-3v1.47h2.26Z"/><path class="cls-2" d="M36.21,18h3v1.17H34.86V13.1a4.68,4.68,0,0,1,.65,0h.7Z"/><path class="cls-2" d="M40.36,13.1h1.26V18h3v1.19H40.36Z"/><path class="cls-2" d="M41.19,6.89A6.92,6.92,0,0,0,41,6a1.25,1.25,0,0,0-.83-.81,2.6,2.6,0,0,0-1-.18H36.58c-.12,0-.25,0-.35,0v6.1c1,0,2,0,3,0a2.91,2.91,0,0,0,.83-.11,1.37,1.37,0,0,0,.93-.79,3.72,3.72,0,0,0,.26-1.35A8.64,8.64,0,0,0,41.19,6.89Zm-1.3,2.36a.85.85,0,0,1-.29.69,8.25,8.25,0,0,1-2,.13V6.12a5.49,5.49,0,0,1,2.06.2,2,2,0,0,1,.22,1.06C39.88,8,39.9,8.63,39.89,9.25Z"/><path class="cls-2" d="M50.72,16.05a3.4,3.4,0,0,1-.1-1,2.13,2.13,0,0,0-.08-.7,2,2,0,0,0-.61-1.16c-.18,0-.33-.1-.51-.1H46.55l-.12.09a1.22,1.22,0,0,0-.66.87c0,.16-.15.32-.1.5s-.09.37-.09.56v.55a5.3,5.3,0,0,1,0,.69,8.09,8.09,0,0,0,.11,1.47,1.59,1.59,0,0,0,.27.8,1,1,0,0,0,.6.5,4.45,4.45,0,0,0,.73.12,10.26,10.26,0,0,1,1.24,0c.42,0,.82-.12,1.24-.11a1.44,1.44,0,0,0,.49-.43,3.53,3.53,0,0,0,.36-1.08,2.55,2.55,0,0,0,0-.78C50.59,16.57,50.76,16.33,50.72,16.05Zm-1.38.75c0,.35-.16.67-.09,1L49,18H47.16C47,17.87,47,17.6,47,17.4c0-.86,0-1.71,0-2.57,0-.15.16-.25.1-.41l.22-.23H49l.22.23c0,.4.14.78.1,1.19A7.88,7.88,0,0,0,49.34,16.8Z"/></g></g></svg>