<svg xmlns="http://www.w3.org/2000/svg" viewBox="0 0 191.6 161.19"><defs><style>.cls-1{fill:#cc594c;}</style></defs><g id="Layer_2" data-name="Layer 2"><g id="Layer_1-2" data-name="Layer 1"><path class="cls-1" d="M52.54,130a53.46,53.46,0,0,0-7.64,17.65h0a6.67,6.67,0,0,0-.63,3.14C40,161,54,165.83,56.52,155.2,62.2,139.08,76.11,128,91.66,122.64,96.35,119.2,99.14,111,94.91,106c14.89-1.93,23.6,13.43,38.86,13.93a54.21,54.21,0,0,0,47.95-16.3c24.82-34.44-1-74.67-34.64-90.79C41.82-43.81-67.67,103.74,52.54,130Z"/></g></g></svg>