<svg xmlns="http://www.w3.org/2000/svg" viewBox="0 0 82.11 164.3"><defs><style>.cls-1{fill:none;stroke:#231f20;stroke-miterlimit:10;stroke-width:1.86px;}.cls-2{fill:#e2e4e3;}.cls-3{fill:#3c3e41;}</style></defs><g id="Layer_2" data-name="Layer 2"><g id="Layer_1-2" data-name="Layer 1"><path class="cls-1" d="M41.05,82.15c.54,0,1.07,0,1.59,0H39.47C40,82.16,40.52,82.15,41.05,82.15Z"/><path class="cls-2" d="M82.11,82.19v41.56c0,.41,0,.83,0,1.24a41.06,41.06,0,0,1-82,0,4.12,4.12,0,0,1,0-.7V82.19Z"/><path class="cls-2" d="M82.11,82.19v41.56c0,.41,0,.83,0,1.24a41.06,41.06,0,0,1-82,0,4.12,4.12,0,0,1,0-.7V82.19Z"/><path class="cls-3" d="M82.11,40.54V82.35H0V40a1.23,1.23,0,0,1,0-.47,41.05,41.05,0,0,1,82.05,0C82.11,39.87,82.11,40.21,82.11,40.54Z"/><path class="cls-3" d="M42.94,156.93a9,9,0,0,1,1.25,2.88h0a1.08,1.08,0,0,1,.1.51c.7,1.66-1.58,2.44-2,.71a9,9,0,0,0-5.72-5.3,2,2,0,0,1-.53-2.7c-2.43-.32-3.85,2.18-6.33,2.26a8.82,8.82,0,0,1-7.81-2.65c-4-5.61.16-12.16,5.64-14.78C44.69,128.63,62.51,152.66,42.94,156.93Z"/><path class="cls-2" d="M2.19,129c0-1.19,0-1.78-.07-2.57l0-2.27L2,119.63l0-9q0-9,0-18.07c.06-6,.11-12,.22-18.08s.19-12,.35-18.07l.2-9,.06-2.26c0-.75,0-1.49.09-2.33s.08-1.61.17-2.42.18-1.61.3-2.41A44.4,44.4,0,0,1,10.25,20,39.48,39.48,0,0,1,24.15,7.16,34.81,34.81,0,0,1,33,3.86a32.31,32.31,0,0,1,9.23-.61.42.42,0,0,1,.38.45.4.4,0,0,1-.38.38h0A34.16,34.16,0,0,0,33.57,6a34.52,34.52,0,0,0-7.66,4A37.56,37.56,0,0,0,14.68,22.7a41.15,41.15,0,0,0-4.83,16c-.06.69-.11,1.39-.13,2.08s0,1.4,0,2.09,0,1.44.05,2.2l.05,2.26.2,9q.23,9,.34,18.08c.11,6,.16,12,.21,18.07s.06,12,0,18.07l0,9-.11,8.72v.53a4.13,4.13,0,0,1-8.25.12Z"/><path class="cls-2" d="M2.19,129c0-1.19,0-1.78-.07-2.57l0-2.27L2,119.63l0-9q0-9,0-18.07c.06-6,.11-12,.22-18.08s.19-12,.35-18.07l.2-9,.06-2.26c0-.75,0-1.49.09-2.33s.08-1.61.17-2.42.18-1.61.3-2.41A44.4,44.4,0,0,1,10.25,20,39.48,39.48,0,0,1,24.15,7.16,34.81,34.81,0,0,1,33,3.86a32.31,32.31,0,0,1,9.23-.61.42.42,0,0,1,.38.45.4.4,0,0,1-.38.38h0A34.16,34.16,0,0,0,33.57,6a34.52,34.52,0,0,0-7.66,4A37.56,37.56,0,0,0,14.68,22.7a41.15,41.15,0,0,0-4.83,16c-.06.69-.11,1.39-.13,2.08s0,1.4,0,2.09,0,1.44.05,2.2l.05,2.26.2,9q.23,9,.34,18.08c.11,6,.16,12,.21,18.07s.06,12,0,18.07l0,9-.11,8.72v.53a4.13,4.13,0,0,1-8.25.12Z"/><path class="cls-3" d="M80.17,36.69c0,1.19,0,1.77.06,2.57l0,2.26,0,4.53,0,9q0,9,0,18.07c-.06,6-.11,12-.22,18.07s-.2,12-.35,18.07l-.2,9-.06,2.26c0,.75,0,1.49-.09,2.32s-.08,1.62-.17,2.43-.18,1.6-.3,2.4a44.29,44.29,0,0,1-6.83,17.92,39.51,39.51,0,0,1-13.9,12.85,34.41,34.41,0,0,1-8.8,3.29,32,32,0,0,1-9.23.61.41.41,0,0,1-.38-.45.42.42,0,0,1,.37-.38h0a34.16,34.16,0,0,0,8.61-1.92,34.74,34.74,0,0,0,7.66-4A37.36,37.36,0,0,0,67.67,143a40.72,40.72,0,0,0,4.83-16c.07-.69.12-1.39.13-2.09s0-1.39,0-2.09,0-1.44,0-2.19l-.06-2.26-.2-9q-.22-9-.33-18.07c-.11-6-.16-12-.21-18.07s-.07-12,0-18.07l0-9,.11-8.71v-.53a4.13,4.13,0,0,1,8.25-.12Z"/><path class="cls-2" d="M38.79,8.24a8.63,8.63,0,0,1-1.24-2.87h0a1.08,1.08,0,0,1-.1-.51c-.69-1.66,1.59-2.45,2-.72a9,9,0,0,0,5.72,5.31,2,2,0,0,1,.53,2.7c2.42.32,3.84-2.18,6.32-2.27a8.85,8.85,0,0,1,7.81,2.66c4,5.61-.16,12.15-5.64,14.78C37,36.54,19.22,12.52,38.79,8.24Z"/></g></g></svg>